# xmcd
#
# Track frame offsets:
#	150
#	34190
#	61392
#	86060
#	102085
#	137502
#	162372
#	190090
#	212087
#	241005
#	267625
#
# Disc length: 4025 seconds
#
# Revision: 2
# Processed by: cddbd v1.5.2PL0 Copyright (c) Steve Scherf et al.
# Submitted via: audiograbber 1.83.01
#
DISCID=950fb70b
DTITLE=Teena Marie - 20th Century Masters - The Millennium Collection - The Bes
DTITLE=t Of
DYEAR=2001
DGENRE=Retro
TTITLE0=I Need Your Lovin'
TTITLE1=Behind The Groove
TTITLE2=Now That I Have You
TTITLE3=Irons In The Fire
TTITLE4=Portuguese Love
TTITLE5=Young Love
TTITLE6=It Must Be Magic
TTITLE7=Aladdin's Lamp
TTITLE8=Square Biz
TTITLE9=I'm A Sucker For Your Love
TTITLE10=Deja Vu (I've Been Here Before)
EXTD=
EXTT0=
EXTT1=
EXTT2=
EXTT3=
EXTT4=
EXTT5=
EXTT6=
EXTT7=
EXTT8=
EXTT9=
EXTT10=
PLAYORDER=
